<svg xmlns="http://www.w3.org/2000/svg" viewBox="0 -0.5 48 48" shape-rendering="crispEdges">
<metadata>Made with Pixels to Svg https://codepen.io/shshaw/pen/XbxvNj</metadata>
<path stroke="#3366ff" d="M24 0h5M22 1h1M24 1h1M20 2h1M22 2h1M19 3h1M13 4h5M12 5h2M15 5h2M18 5h1M11 6h1M15 6h3M14 7h1M16 7h1M13 8h1M15 8h1M12 9h1M14 9h1M11 10h1M10 11h2M9 12h3M8 13h4M8 14h4M7 15h2M10 15h7M6 16h2M10 16h6M17 16h1M5 17h2M10 17h7M18 17h1M4 18h2M10 18h2M4 19h2M10 19h2M4 20h1M11 20h1M24 20h6M3 21h2M11 21h2M23 21h1M3 22h1M12 22h2M22 22h3M28 22h1M2 23h2M12 23h3M20 23h8M2 24h2M14 24h2M19 24h9M2 25h2M15 25h12M2 26h1M18 26h7M2 27h1M21 27h2" />
<path stroke="#0066cc" d="M29 0h1M23 1h1M29 1h2M30 2h2M13 3h6M21 3h2M31 3h1M10 4h3M23 4h2M31 4h1M9 5h3M25 5h2M31 5h1M8 6h3M27 6h1M31 6h1M7 7h3M28 7h1M8 8h1M6 9h2M15 9h1M19 9h1M29 9h1M14 10h1M20 10h1M29 10h1M13 11h1M21 11h1M29 11h1M12 12h1M22 12h1M29 12h1M12 13h1M22 13h1M30 13h1M12 14h11M30 14h1M9 15h1M30 15h1M9 16h1M30 16h1M9 17h1M30 17h1M9 19h1M12 19h1M9 20h2M12 20h1M10 21h1M13 21h1M29 21h1M4 22h1M10 22h2M14 22h1M11 23h1M28 23h1M12 24h2M16 24h3M13 25h2M16 26h2M18 27h3" />
<path stroke="#0066ff" d="M19 2h1M21 2h1M17 8h1M28 8h1M7 17h1M3 20h1" />
<path stroke="#3399cc" d="M20 3h1M18 4h1M20 4h1M17 5h1M19 5h1M18 6h1M15 7h1M17 7h1M19 7h1M14 8h1M16 8h1M17 15h1M19 15h1M16 16h1M18 16h1M20 16h1M17 17h1M19 17h1M21 17h1M24 21h1M27 21h1" />
<path stroke="#0099ff" d="M19 4h1M21 4h2M20 5h5M19 6h3M24 6h3M18 7h1M20 7h1M22 7h1M26 7h2M19 8h3M27 8h1M20 9h1M27 9h2M21 10h1M28 10h1M22 11h1M28 11h1M24 13h1M28 13h2M23 14h1M26 14h1M29 14h1M20 15h6M27 15h1M29 15h1M19 16h1M21 16h9M20 17h1M22 17h8M25 21h1M28 21h1" />
<path stroke="#336699" d="M8 5h1M7 20h1M9 22h1M9 24h1M11 24h1M11 26h1M13 26h1M16 27h1M19 31h5M26 36h14M26 38h14M26 40h9M36 40h4" />
<path stroke="#669999" d="M14 5h1M9 8h1" />
<path stroke="#3333cc" d="M7 6h1M6 7h1M5 8h1M4 9h1M16 9h3M19 10h1M3 11h1M2 13h1M8 20h1M22 20h1M21 21h1M8 22h1M20 22h1M9 23h1M10 24h1M9 25h1M11 25h1M12 26h1M2 29h1M21 29h3M3 30h2M17 31h2" />
<path stroke="#6699cc" d="M12 6h1M14 6h1M13 7h1" />
<path stroke="#cccc99" d="M13 6h1M10 9h1M7 10h1M9 10h1M6 11h1M8 11h1M28 27h1M27 28h1M44 28h1M25 29h2M44 29h1M22 30h3M44 30h1M15 31h2M44 31h1M15 32h4M40 32h5" />
<path stroke="#00ccff" d="M22 6h2M21 7h1M24 7h1M25 8h2M27 10h1M28 12h1M27 14h2M26 15h1" />
<path stroke="#3366cc" d="M10 7h1M12 8h1M10 10h1M13 10h1M12 11h1M7 14h1M6 15h1M8 16h1M6 18h1M23 20h1M15 27h1M2 28h1M3 29h1" />
<path stroke="#b2b2b2" d="M11 7h1M8 9h1" />
<path stroke="#ffffcc" d="M12 7h1M10 8h1" />
<path stroke="#33ccff" d="M23 7h1M22 8h3M21 9h2M24 9h1M26 9h1M22 10h2M23 11h2M23 12h1M23 13h1M24 14h2M28 15h1" />
<path stroke="#3399ff" d="M25 7h1M18 8h1M13 9h1M12 10h1M18 15h1M26 22h1" />
<path stroke="#333399" d="M6 8h1M4 12h1M8 18h1M7 19h1M6 20h1M7 21h1M7 22h1M8 24h1M10 26h1" />
<path stroke="#006699" d="M7 8h1M6 10h1M5 11h1M8 17h1M7 18h1M9 18h1M6 19h1M8 19h1M5 20h1M30 20h1M5 21h1M8 21h2M22 21h1M30 21h1M21 22h1M29 22h1M4 23h1M8 23h1M10 23h1M15 23h5M29 23h1M4 24h1M28 24h1M4 25h1M10 25h1M12 25h1M27 25h1M3 26h1M14 26h2M25 26h2M3 27h1M14 27h1M17 27h1M23 27h2M3 28h1M16 28h7M4 29h1M10 29h2M5 30h5" />
<path stroke="#ffff99" d="M11 8h1M9 9h1M8 10h1M7 11h1M42 27h1M44 27h1M45 28h1M38 29h1M36 30h1M39 30h1M45 30h1M35 31h1M38 31h1M34 32h1M37 32h1M39 32h1M45 32h1M31 33h1M36 33h1M38 33h1M40 33h1M42 33h1M44 33h1M33 34h1M35 34h1M37 34h1M39 34h1M41 34h1M43 34h1M45 34h1M28 35h1M30 35h1M32 35h1M34 35h1M36 35h1M38 35h1M40 35h1M42 35h1M44 35h1M41 36h1M43 36h1M45 36h1M26 37h1M28 37h1M30 37h1M32 37h1M34 37h1M36 37h1M38 37h1M40 37h1M42 37h1M44 37h1M41 38h1M43 38h1M45 38h1M24 39h1M26 39h1M28 39h1M30 39h1M32 39h1M34 39h1M36 39h1M38 39h1M40 39h1M42 39h1M44 39h1M23 40h1M25 40h1M41 40h1M43 40h1M45 40h1M19 41h1M21 41h1M24 41h1M26 41h1M28 41h1M30 41h1M32 41h1M34 41h1M36 41h1M38 41h1M40 41h1M42 41h1M44 41h1M21 42h1M23 42h1M25 42h1M27 42h1M29 42h1M31 42h1M33 42h1M35 42h1M37 42h1M39 42h1M41 42h1M43 42h1M45 42h1M16 43h1M18 43h1M20 43h1M22 43h1M24 43h1M26 43h1M28 43h1M30 43h1M32 43h1M34 43h1M36 43h1M38 43h1M40 43h1M42 43h1M44 43h1M17 44h1M19 44h1M21 44h1M23 44h1M25 44h1M27 44h1M29 44h1M31 44h1M33 44h1M35 44h1M37 44h1M39 44h1M41 44h1M43 44h1M45 44h1M16 45h1M18 45h1M20 45h1M22 45h1M24 45h1M26 45h1M28 45h1M30 45h1M32 45h1M34 45h1M36 45h1M38 45h1M40 45h1M42 45h1M44 45h1" />
<path stroke="#000099" d="M5 9h1M4 10h1M4 11h1M3 12h1M21 12h1M21 13h1M12 18h19M6 21h1M7 23h1M8 25h1M9 26h1M11 27h1M13 28h2M19 29h2M10 30h2M9 31h1" />
<path stroke="#6666cc" d="M11 9h1M9 11h1M8 12h1M7 13h1" />
<path stroke="#66ffff" d="M23 9h1M25 9h1M24 10h2M24 12h2M25 13h1M27 13h1" />
<path stroke="#003399" d="M5 10h1M20 11h1M5 22h1M6 24h1M7 25h1M12 27h1" />
<path stroke="#99ffff" d="M26 10h1M25 11h2M26 12h1" />
<path stroke="#33ffff" d="M27 11h1" />
<path stroke="#cccc66" d="M5 12h1M7 12h1M5 13h2" />
<path stroke="#ffcc99" d="M6 12h1" />
<path stroke="#66ccff" d="M27 12h1M26 13h1" />
<path stroke="#333366" d="M3 13h1" />
<path stroke="#999966" d="M4 13h1M4 15h2M30 26h1M25 27h2M46 27h1M23 28h2M46 28h1M46 29h1M15 30h5M46 30h1M46 31h1M14 32h1M46 32h1M46 33h1M46 34h1M46 35h1M46 36h1M46 37h1M46 38h1M46 39h1M46 40h1M46 41h1M46 42h1M46 43h1M46 44h1M46 45h1M15 46h32" />
<path stroke="#000080" d="M2 14h1M6 22h1M6 23h1M7 24h1" />
<path stroke="#777777" d="M3 14h1M3 16h1M1 17h1M3 17h2M1 18h1M0 19h1M0 20h1" />
<path stroke="#ada990" d="M4 14h1M31 26h16M27 27h1M25 28h2M24 29h1M20 30h2M14 33h1M14 34h1M14 35h1M14 36h1M14 37h1M14 38h1M14 39h1M14 40h1M14 41h1M14 42h1M14 43h1M14 44h1M14 45h1M14 46h1" />
<path stroke="#cc9966" d="M5 14h1" />
<path stroke="#969696" d="M6 14h1" />
<path stroke="#666666" d="M2 15h1M3 18h1" />
<path stroke="#999933" d="M3 15h1M4 16h1" />
<path stroke="#666633" d="M2 16h1M2 17h1M2 18h1" />
<path stroke="#666699" d="M5 16h1M3 19h1M2 22h1" />
<path stroke="#555555" d="M1 19h1M1 20h2M1 21h2" />
<path stroke="#5f5f5f" d="M2 19h1M0 21h1M0 22h2M1 23h1M1 24h1M1 25h1M0 26h2M1 27h1M1 28h1M1 29h1" />
<path stroke="#0099cc" d="M26 21h1M25 22h1M27 22h1" />
<path stroke="#4d4d4d" d="M0 23h1M0 24h1M0 25h1" />
<path stroke="#000066" d="M5 23h1" />
<path stroke="#333333" d="M5 24h1" />
<path stroke="#222222" d="M6 25h1M13 29h1" />
<path stroke="#161616" d="M7 26h2M9 27h2M47 27h1M11 28h2M14 29h5" />
<path stroke="#808000" d="M27 26h3M14 30h1M14 31h1" />
<path stroke="#0c0c0c" d="M47 26h1M47 28h1M47 29h1M47 30h1M47 31h1M47 34h1M47 35h1M47 36h1M47 37h1M47 38h1" />
<path stroke="#0033cc" d="M13 27h1M15 28h1" />
<path stroke="#dddddd" d="M29 27h1M28 28h1M27 29h1M25 30h1M19 32h1" />
<path stroke="#f1f1f1" d="M30 27h1M29 28h1M28 29h1M20 32h1" />
<path stroke="#ffffff" d="M31 27h11M43 27h1M45 27h1M30 28h10M29 29h9M39 29h1M45 29h1M26 30h10M37 30h2M24 31h11M36 31h2M39 31h1M45 31h1M21 32h13M35 32h2M38 32h1M15 33h16M32 33h4M37 33h1M39 33h1M41 33h1M43 33h1M45 33h1M15 34h18M34 34h1M36 34h1M38 34h1M40 34h1M42 34h1M44 34h1M15 35h13M29 35h1M31 35h1M33 35h1M35 35h1M37 35h1M39 35h1M41 35h1M43 35h1M45 35h1M15 36h11M40 36h1M42 36h1M44 36h1M15 37h11M27 37h1M29 37h1M31 37h1M33 37h1M35 37h1M37 37h1M39 37h1M41 37h1M43 37h1M45 37h1M15 38h11M40 38h1M42 38h1M44 38h1M15 39h9M25 39h1M27 39h1M29 39h1M31 39h1M33 39h1M35 39h1M37 39h1M39 39h1M41 39h1M43 39h1M45 39h1M15 40h8M24 40h1M40 40h1M42 40h1M44 40h1M15 41h4M20 41h1M22 41h2M25 41h1M27 41h1M29 41h1M31 41h1M33 41h1M35 41h1M37 41h1M39 41h1M41 41h1M43 41h1M45 41h1M15 42h6M22 42h1M24 42h1M26 42h1M28 42h1M30 42h1M32 42h1M34 42h1M36 42h1M38 42h1M40 42h1M42 42h1M44 42h1M15 43h1M17 43h1M19 43h1M21 43h1M23 43h1M25 43h1M27 43h1M29 43h1M31 43h1M33 43h1M35 43h1M37 43h1M39 43h1M41 43h1M43 43h1M45 43h1M15 44h2M18 44h1M20 44h1M22 44h1M24 44h1M26 44h1M28 44h1M30 44h1M32 44h1M34 44h1M36 44h1M38 44h1M40 44h1M42 44h1M44 44h1M15 45h1M17 45h1M19 45h1M21 45h1M23 45h1M25 45h1M27 45h1M29 45h1M31 45h1M33 45h1M35 45h1M37 45h1M39 45h1M41 45h1M43 45h1M45 45h1" />
<path stroke="#ff5050" d="M40 28h3M40 29h1M40 30h1" />
<path stroke="#993333" d="M43 28h1M43 29h1M43 30h1M40 31h4" />
<path stroke="#292929" d="M12 29h1" />
<path stroke="#ff7c80" d="M41 29h1" />
<path stroke="#ff3333" d="M42 29h1M41 30h2" />
<path stroke="#003366" d="M2 30h1M4 31h5" />
<path stroke="#040404" d="M47 32h1M47 33h1M47 39h1M47 40h1M47 46h1M36 47h10M47 47h1" />
<path stroke="#080808" d="M47 41h1M47 42h1M47 43h1M47 44h1M47 45h1" />
<path stroke="#1c1c1c" d="M14 47h22M46 47h1" />
</svg>